<?xml version="1.0" encoding="utf-8" ?>
<svg xmlns="http://www.w3.org/2000/svg" xmlns:xlink="http://www.w3.org/1999/xlink" width="1024" height="1024">
	<path fill="#050506" d="M348.854 263.218C359.33 252.792 370.693 243.065 381.691 233.19C452.159 169.919 529.684 115.426 621.167 87.3259C652.022 77.8486 683.981 71.3877 716.367 71.5294C761.377 71.7265 800.318 88.8178 831.776 120.887C850.491 139.965 864.319 163.146 876.58 186.724C925.179 280.174 952.632 402.037 970.505 505.561C976.07 537.794 981.275 569.936 983.571 602.596C984.163 611.024 985.032 619.576 984.909 628.025C984.373 664.991 978.029 707.711 960.044 740.488C970.109 743.674 985.179 746.436 990.673 756.647C991.143 757.521 991.498 758.427 991.851 759.352C987.143 773.276 976.243 779.948 963.591 786.237C952.148 791.925 939.951 796.009 927.912 800.218C923.813 801.651 919.729 803.461 915.622 804.777C906.796 809.261 896.802 812.357 887.526 815.814L836.309 834.655C770.668 858.641 704.727 883.279 637.063 901.029C520.718 931.548 331.507 966.556 214.407 942.214C192.784 937.719 171.148 930.354 152.045 919.161C117.246 898.773 93.9499 866.152 83.8707 827.278C59.9286 734.936 110.362 597.156 152.153 514.159C171.352 476.031 193.727 440.111 215.333 403.374C207.381 399.819 197.259 399.1 188.751 397.066C182.298 395.523 175.323 392.477 168.719 392.072C161.075 391.603 151.649 396.629 143.654 397.362C130.213 398.594 114.84 395.763 102.292 397.51C89.7789 399.251 84.6963 405.163 69.641 402.029C62.0057 400.439 57.463 395.872 51.1012 391.932C48.7365 390.467 45.8962 389.594 43.3476 388.478C38.3569 386.293 35.4183 383.347 33.496 378.179C31.0109 371.497 29.9195 359.245 33.8975 353.023C37.1437 347.946 45.6848 346.351 50.6494 342.817C63.8384 333.43 83.4767 311.683 89.5482 296.58C92.9491 288.12 94.4976 279.105 98.1561 270.687C90.478 262.95 76.8531 248.27 76.07 237.186C75.8785 234.476 76.6634 232.075 78.5506 230.089C85.2234 223.065 105.344 224.912 113.971 226.729C120.036 228.005 127.603 231.321 133.758 230.853C134.986 230.76 134.743 230.699 135.438 229.848C133.975 228.043 131.514 226.585 129.647 225.175C121.447 218.982 119.057 214.974 115.431 205.278C113.343 199.694 109.584 187.881 112.511 182.224C113.069 181.146 113.967 180.318 115.149 179.985C117.496 179.324 118.902 180.254 120.123 182.211C122.441 185.923 124.362 189.897 126.775 193.547C132.779 202.629 142.045 207.433 151.165 212.828C157.232 208.834 164.326 206.767 171.19 204.617C168.673 201.428 166.138 198.232 163.871 194.859C161.886 191.906 157.56 184.885 158.827 181.316C159.248 180.131 159.747 179.952 160.792 179.484C162.015 179.523 162.956 179.667 164.098 180.136C169.81 182.485 173.878 187.495 179.063 190.701C189.181 196.955 204.537 199.67 209.349 211.822C212.185 218.985 210.544 226.289 207.519 233.034L212.796 235.069C215.974 230.201 220.614 225.181 226.023 222.816C233.562 219.52 248.466 218.008 256.104 221.392C258.172 222.308 259.599 223.651 260.298 225.83C262.371 232.298 258.233 240.573 255.357 246.267C265.034 248.621 275.061 250.182 284.847 252.059C306.085 256.319 327.428 260.04 348.854 263.218Z"/>
	<path fill="#BBDBA6" d="M215.333 403.374C220.192 405.644 224.478 408.33 228.262 412.17C243.84 427.98 255.087 449.101 266.603 467.879C278.876 487.892 291.423 507.882 302.483 528.603C315.689 553.348 325.857 582.618 348.135 600.892C346.527 616.364 346.959 632.1 346.96 647.641C346.961 656.984 346.473 666.51 347.143 675.82C347.612 682.345 350.963 688.215 351.676 694.689C353.969 715.502 345.154 744.972 336.731 764.085C330.787 765.307 324.726 765.838 318.739 766.816C307.744 768.611 296.773 770.716 285.821 772.756C254.687 778.556 147.356 800.057 131.694 823.534C130.009 826.06 129.125 829.043 129.826 832.059C130.788 836.198 134.264 839.113 137.786 841.143C156.602 851.992 194.833 854.387 216.734 856.324C249.481 859.066 282.314 860.646 315.173 861.061C390.004 862.603 464.866 860.545 539.499 854.894C605.977 850.404 672.059 844.895 738.1 835.805C779.751 830.155 821.227 823.285 862.476 815.205C871.698 813.34 909.288 803.019 915.622 804.777C906.796 809.261 896.802 812.357 887.526 815.814L836.309 834.655C770.668 858.641 704.727 883.279 637.063 901.029C520.718 931.548 331.507 966.556 214.407 942.214C192.784 937.719 171.148 930.354 152.045 919.161C117.246 898.773 93.9499 866.152 83.8707 827.278C59.9286 734.936 110.362 597.156 152.153 514.159C171.352 476.031 193.727 440.111 215.333 403.374Z"/>
	<path fill="#BBDBA6" d="M348.854 263.218C359.33 252.792 370.693 243.065 381.691 233.19C452.159 169.919 529.684 115.426 621.167 87.3259C652.022 77.8486 683.981 71.3877 716.367 71.5294C761.377 71.7265 800.318 88.8178 831.776 120.887C850.491 139.965 864.319 163.146 876.58 186.724C925.179 280.174 952.632 402.037 970.505 505.561C976.07 537.794 981.275 569.936 983.571 602.596C984.163 611.024 985.032 619.576 984.909 628.025C984.373 664.991 978.029 707.711 960.044 740.488C958.351 740.555 956.162 739.883 954.481 739.567C948.479 738.44 942.433 737.567 936.358 736.949C930.573 736.346 923.025 736.455 917.604 734.468C915.829 702.037 910.157 670.578 913.026 637.968C913.515 632.411 914.475 626.191 913.128 620.694C911.524 614.148 905.643 609.712 901.692 604.576C891.656 591.531 888.054 573.094 886.817 557.074C885.733 543.034 887.222 528.858 888.563 514.89C891.873 480.379 898.538 445.75 898.479 411.022L899.472 411.37C899.476 421.672 900.544 431.958 901.482 442.209C903.016 459.2 904.848 476.162 906.978 493.088C908.702 506.567 910.884 520.095 911.964 533.643C913.126 548.225 908.853 562.736 910.915 577.328C912.101 585.721 915.616 593.837 919.668 601.217C925.104 611.12 939.268 631.148 951.159 633.838C952.453 634.131 953.042 634.022 954.138 633.334C955.213 629.061 947.812 621.174 946.663 616.501C944.651 608.32 947.976 597.601 948.871 589.37C953.2 549.585 929.56 548.933 924.378 518.934C919.03 487.976 919.538 456.046 919.431 424.727C919.365 405.263 919.985 385.062 915.886 365.93C913.394 354.3 908.833 343.31 901.333 334.002C889.71 319.545 873.338 309.675 855.126 306.147C833.936 302.105 811.674 305.027 790.252 305.069C761.428 305.075 732.615 303.988 703.873 301.811C693.452 301 683.064 299.788 672.637 299.03C651.023 297.459 629.358 296.327 607.797 294.103C587.91 292.052 568.067 289.062 548.263 286.319C517.414 282.047 486.92 275.225 456.016 271.524C441.159 269.745 426.077 269.778 411.147 268.853C390.343 267.44 369.574 265.561 348.854 263.218Z"/>
	<path fill="#92BC6C" d="M772.23 725.044C784.32 726.77 796.609 725.82 808.783 726.001C821.129 726.185 833.45 727.14 845.777 727.763C857.581 728.36 869.796 728.566 881.487 730.124C879.601 738.061 876.262 745.785 871.348 752.339C868.472 756.174 865.007 759.698 861.615 763.076C856.484 768.185 831.408 789.998 836.394 797.219C838.744 800.621 846.31 800.443 850.77 805.525C863.954 805.979 892.232 797.891 901.86 788.762C907.795 783.134 907.967 774.001 908.722 766.379C912.465 766.946 916.855 767.975 920.129 765.444C921.76 764.182 922.424 762.234 922.528 760.234C922.806 754.93 920.006 748.964 918.836 743.786C918.146 740.728 917.885 737.584 917.604 734.468C923.025 736.455 930.573 736.346 936.358 736.949C942.433 737.567 948.479 738.44 954.481 739.567C956.162 739.883 958.351 740.555 960.044 740.488C970.109 743.674 985.179 746.436 990.673 756.647C991.143 757.521 991.498 758.427 991.851 759.352C987.143 773.276 976.243 779.948 963.591 786.237C952.148 791.925 939.951 796.009 927.912 800.218C923.813 801.651 919.729 803.461 915.622 804.777C909.288 803.019 871.698 813.34 862.476 815.205C821.227 823.285 779.751 830.155 738.1 835.805C672.059 844.895 605.977 850.404 539.499 854.894C464.866 860.545 390.004 862.603 315.173 861.061C282.314 860.646 249.481 859.066 216.734 856.324C194.833 854.387 156.602 851.992 137.786 841.143C134.264 839.113 130.788 836.198 129.826 832.059C129.125 829.043 130.009 826.06 131.694 823.534C147.356 800.057 254.687 778.556 285.821 772.756C296.773 770.716 307.744 768.611 318.739 766.816C324.726 765.838 330.787 765.307 336.731 764.085C328.045 778.615 312.724 782.242 300.523 792.924C294.758 797.971 288.011 804.587 287.506 812.668L288.278 813.535C292.673 814.834 298.725 811.932 302.681 810.205C301.842 811.382 300.927 812.616 300.274 813.904C299.624 815.185 299.688 816.246 300.109 817.592C300.891 818.534 301.519 819.084 302.725 819.43C312.3 822.171 347.51 809.542 357.352 804.541C360.107 797.296 361.531 789.485 363.792 782.053C365.105 782.781 366.761 783.762 368.319 783.724C369.794 783.687 370.74 783.211 371.75 782.151C375.621 778.088 374.333 764.417 374.392 759.1C388.512 758.882 403.989 755.439 418.043 753.406L478.076 745.302C478.767 753.775 480.585 768.061 475.402 775.585C468.699 785.313 460.029 792.705 452.278 801.495C447.934 806.422 438.11 820.366 439.147 827.14C439.32 828.268 439.712 829.214 440.732 829.818C443.809 831.643 449.393 829.741 452.742 829.063C453.111 830.986 453.348 832.758 454.407 834.442C455.238 834.99 455.885 835.211 456.868 835.259C467.072 835.758 497.634 821.694 505.681 814.53C511.846 809.042 511.515 795.241 512.055 787.637C514.814 786.544 518.268 785.501 519.93 782.855C520.985 781.176 520.505 779.313 520.149 777.483C519.071 771.945 516.595 766.558 514.841 761.202C512.926 755.356 511.583 749.306 510.225 743.311C526.251 740.795 542.87 740.546 559.014 738.797C599.921 734.154 640.954 730.686 682.061 728.398C697.047 727.566 712.127 726.542 727.134 726.328C723.05 731.333 718.918 736.385 714.044 740.653C701.748 751.422 687.442 759.143 677.091 772.174C674.822 775.03 672.782 778.024 673.223 781.803C674.997 784.415 678.936 784.788 681.818 785.484C682.27 787.346 682.204 788.593 683.498 790.072C687.76 791.623 693.266 790.734 697.665 790.14C709.601 788.528 736.794 783.255 744.843 775.077C746.352 773.544 747.313 771.601 747.776 769.51C748.774 764.999 748.103 758.228 751.357 754.679C754.228 751.548 757.348 754.518 760.706 753.847C764.61 753.068 766.025 738.33 767.38 734.673C768.6 731.378 770.571 728.143 772.23 725.044Z"/>
	<path fill="#BBDBA6" d="M690.172 572.031C699.301 580.561 709.659 587.242 720.403 593.514C719.252 596.294 718.062 599.081 717.117 601.938C715.225 607.655 714.146 614.292 717.174 619.837C718.218 621.749 719.582 623.125 721.754 623.654C723.677 624.122 725.966 623.267 727.587 622.278C735.016 617.746 737.212 608.14 739.24 600.329C742.464 601.277 745.652 602.369 748.846 603.415C748.144 606.55 747.447 609.685 747.039 612.875C746.368 618.133 746.428 624.64 750.009 628.922C750.942 630.037 752.204 630.847 753.709 630.847C757.326 630.847 760.15 628.176 762.53 625.817C762.594 661.842 746.296 696.683 727.134 726.328C712.127 726.542 697.047 727.566 682.061 728.398C640.954 730.686 599.921 734.154 559.014 738.797C542.87 740.546 526.251 740.795 510.225 743.311C506.628 728.262 502.571 712.424 502.419 696.871C502.334 688.194 504.119 679.626 503.294 670.93C502.206 659.471 499.661 648.157 498.169 636.74C496.205 621.715 495.704 606.491 495.518 591.355C517.399 586.039 532.56 587.955 554.335 590.232C590.975 594.063 631.092 598.271 666.266 584.445C674.687 581.135 682.406 576.616 690.172 572.031Z"/>
	<path fill="#BBDBA6" d="M403.437 617.207C412.114 615.056 420.669 613.226 429.523 611.957C434.153 622.7 438.307 633.643 441.971 644.754C445.767 656.049 449.055 668.131 454.935 678.539C457.441 682.976 460.224 686.314 464.148 689.553C471.007 707.488 474.922 726.421 478.076 745.302L418.043 753.406C403.989 755.439 388.512 758.882 374.392 759.1C374.513 738.994 377.5 718.163 382.72 698.753C385.151 689.716 388.346 680.906 390.668 671.831C395.3 653.732 398.983 635.363 403.437 617.207Z"/>
	<path fill="#BBDBA6" d="M816.12 599.889C817.353 603.436 818.141 607.592 821.547 609.664C822.352 609.626 822.779 609.807 823.389 609.189C827.307 605.225 825.684 591.927 825.489 586.506C832.686 600.031 837.344 614.737 845.115 627.972C850.222 636.669 857.467 643.96 863.126 652.283C878.135 674.357 884.642 703.716 881.487 730.124C869.796 728.566 857.581 728.36 845.777 727.763C833.45 727.14 821.129 726.185 808.783 726.001C796.609 725.82 784.32 726.77 772.23 725.044C780.438 709.584 790.492 695.39 800.722 681.222C807.617 671.674 816.129 661.881 820.772 651.026C816.493 634.599 814.008 616.839 816.12 599.889Z"/>
	<path fill="#BBDBA6" d="M885.774 346.402C894.988 358.108 898.326 374.366 898.518 388.973L897.43 386.867C897.933 373.19 891.332 358.602 885.774 346.402Z"/>
	<path fill="#3C3C3C" d="M897.43 386.867L898.518 388.973C899.733 396.054 899.677 404.186 899.472 411.37L898.479 411.022C898.561 402.947 898.081 394.911 897.43 386.867Z"/>
	<path fill="#FEFEFE" d="M375.531 270.822C403.471 272.99 431.458 274.182 459.412 276.111C466.065 284.936 474.371 294.842 476.954 305.768C479.972 318.536 473.007 330.978 469.053 342.746C462.004 363.724 461.338 385.994 469.806 406.628C475.138 419.621 490.033 448.118 502.906 453.045C504.807 453.773 507.601 454.218 509.451 453.086C516.599 448.712 505.278 428.029 503.3 422.155C501.562 416.821 500.213 411.368 499.263 405.84C495.839 386.637 497.987 368.539 505.458 350.559C508.494 343.251 512.098 335.996 514.229 328.363C519.456 309.643 511.04 298.898 502.196 283.403C510.901 285.145 519.658 286.668 528.388 288.278C533.085 296.662 539.342 304.053 542.251 313.385C544.297 319.949 544.388 326.613 544.657 333.413C545.242 348.203 547.237 362.272 554.485 375.426C565.669 395.724 593.526 405.313 599.98 424.119C594.525 435.105 580.261 439.583 577.831 452.053C574.345 469.942 600.124 482.206 608.669 494.994C618.1 509.106 604.963 515.096 603.038 527.399C602.674 529.73 603.141 531.947 604.613 533.814C607.198 537.095 612.012 538.444 615.976 538.941C633.427 541.128 684.037 528.604 697.734 517.478C704.915 511.644 704.851 501.727 705.547 493.273C710.687 490.417 716.399 487.701 720.824 483.786C723.491 481.426 725.396 478.586 726.079 475.057C727.71 466.636 724.993 455.954 725.498 447.108C725.997 438.36 728.948 429.939 729.555 421.192C730.276 410.806 726.752 401.782 720.347 393.692C709.85 380.434 692.863 372.68 679.889 362.026C670.093 353.982 661.636 344.36 652.425 335.668C646.267 329.858 639.576 324.641 633.334 318.924C626.453 312.622 620.301 305.807 614.214 298.749C666.633 304.269 719.239 307.828 771.924 309.418C780.16 309.603 788.493 309.701 796.725 309.376C814.049 308.692 831.802 307.085 849.048 309.508C868.726 312.274 886.441 321.744 898.441 337.798C904.652 346.071 909.022 355.576 911.258 365.676C914.86 381.579 914.445 398.369 914.617 414.583C914.886 439.911 914.84 465.266 916.634 490.543C917.283 499.68 917.774 508.927 919.483 517.942C921.168 526.836 924.532 534.642 929.489 542.21C933.086 547.7 937.252 553.068 940.297 558.875C947.453 572.524 945.05 589.992 942.979 604.705C942.056 595.353 944.281 574.188 938.077 567.164L937.495 567.208C936.527 569.708 939.251 604.525 940.064 609.313C940.982 614.714 942.576 619.799 944.316 624.974C931.483 604.772 936.295 597.31 932.483 576.618C931.143 569.341 928.73 562.216 926.894 555.051C925.285 548.777 924.202 542.358 922.281 536.169C921.849 552.241 926.824 560.515 929.105 575.369C930.122 581.99 929.879 588.823 930.375 595.502C930.98 603.65 932.897 611.212 935.264 618.987C920.122 594.742 921.309 565.27 920.765 537.767C914.225 556.711 917.908 576.199 921.337 595.355C911.533 573.088 917.644 556.981 916.335 534.56C915.645 522.743 913.712 511.01 912.211 499.277C910.518 485.459 909.006 471.619 907.675 457.761C906.218 442.981 905.062 428.172 904.209 413.345C903.166 395.855 904.279 376.819 898.123 360.189C894.479 350.347 888.852 341.101 879.797 335.416C876.236 333.18 872.417 331.362 868.864 329.113C864.327 326.241 860.223 322.743 855.27 320.563C851.757 319.017 846.29 318.251 842.659 319.81C841.492 320.311 840.51 321.162 840.11 322.402C837.836 329.449 854.607 343.925 858.893 348.759C861.847 352.139 864.457 355.803 866.687 359.698C876.889 377.478 876.278 398.768 871.148 418.03C857.766 397.317 838.557 380.747 814.83 373.113C808.418 371.049 800.394 369.605 794.195 373.001C791.421 374.521 789.74 376.918 788.977 379.968C785.266 394.811 800.31 412.956 807.659 424.815C815.284 438.621 815.77 456.206 825.318 468.852C830.715 476 837.875 480.226 845.455 484.7C863.983 495.637 873.534 506.798 883.047 525.949C880.638 552.256 881.709 581.411 895.841 604.534C899.732 610.901 905.493 615.83 909.51 622.176C909.367 629.889 907.872 637.442 907.579 645.126C907.009 660.04 907.965 674.995 909.09 689.859C910.403 707.198 911.917 724.694 913.933 741.962C914.602 747.7 918.56 754.41 917.932 760.053C917.473 764.188 909.63 760.403 906.374 763.341C902.65 766.7 903.101 773.523 902.935 778.068C895.674 775.088 888.179 771.457 880.385 770.235C874.5 769.312 868.984 769.933 863.199 768.109C869.198 762.084 874.974 755.784 879.168 748.334C890.082 728.946 888.064 704.239 882.102 683.623C878.539 671.3 873.227 658.443 865.589 648.055C859.552 639.844 852.609 632.14 847.484 623.297C841.088 612.259 837.202 599.886 831.736 588.392C821.151 566.129 796.571 527.262 774.771 515.451C744.932 499.285 724.329 535.569 706.417 552.841C695.05 563.801 681.883 573.367 667.229 579.39C628.683 595.234 586.77 588.723 546.576 585.128C529.38 583.59 512.347 581.912 495.527 586.811C495.425 578.538 496.088 570.366 497.918 562.283C500.257 551.952 503.821 541.83 504.579 531.201C505.127 523.515 505.183 511.976 499.853 505.864L499.248 505.91C497.435 510.453 499.942 517.238 500.29 522.046C500.484 524.734 500.329 527.506 500.116 530.191C498.897 545.521 492.557 559.784 491.43 575.073C490.865 582.731 491.187 590.451 491.334 598.119C491.609 612.415 492.187 626.731 494.159 640.909C495.545 650.874 498.168 660.761 498.94 670.798C499.463 677.613 498.112 684.444 497.889 691.254C497.59 700.351 498.806 709.603 500.299 718.567C502.817 733.685 506.078 749.336 510.755 763.934C511.877 767.437 514.225 770.501 515.22 774.035C515.728 775.837 516.066 778.395 515.486 780.194C515.228 780.995 514.87 780.993 514.195 781.377C512.318 780.853 511.767 779.72 510.518 778.262C506.83 788.188 506.794 798.951 504.66 809.248C496.904 801.855 488.316 803.051 478.848 800.236C473.78 798.729 468.889 796.259 463.901 794.437C468.66 790.203 473.874 785.866 477.591 780.647C488.355 765.537 481.309 729.814 476.386 712.585C474.622 706.413 471.077 699.562 470.159 693.335C470.007 692.302 469.937 692.783 470.637 691.81C471.302 691.676 472.114 691.566 472.763 691.336C474.11 690.858 474.168 690.721 474.757 689.496C474.682 687.827 474.316 686.69 473.671 685.156C472.496 685.935 471.515 686.484 470.196 686.972C469.393 686.935 468.739 686.849 468.02 686.458C456.419 680.15 452.366 661.668 448.606 650.123C443.191 633.656 437.001 617.454 430.056 601.571C426.025 592.378 421.467 583.418 417.523 574.187C412.468 562.356 408.724 549.512 402.68 538.166C401.583 536.106 400.194 533.491 398.061 532.406L397.469 532.93C397.271 534.797 397.205 536.453 397.665 538.294C399.11 544.08 402.613 550.035 404.972 555.522C408.65 564.075 411.986 572.773 415.772 581.28C419.713 590.135 424.055 598.791 427.71 607.773C408.541 610.38 389.908 616.555 370.904 609.423C334.648 595.815 320.85 553.138 303.685 521.995C299.444 514.302 295.215 506.572 290.694 499.042C286.881 492.692 282.573 486.471 279.514 479.716C308.942 466.685 314.499 506.326 337.925 511.153C342.873 512.172 346.677 510.635 350.713 507.875C357.731 519.962 364.716 533.959 374.956 543.636C370.268 530.314 360.771 517.741 352.795 506.172L357.379 502.757C361.935 510.869 376.775 538.19 383.9 542.215C384.885 542.772 384.451 542.735 385.371 542.462C384.827 539.561 363.594 507.704 359.651 501.308C367.047 496.485 374.963 491.406 381.002 484.923C396.819 467.942 385.172 450.6 381.874 431.684C379.622 418.475 379.435 404.996 381.318 391.729C382.418 384.695 384.051 377.754 386.204 370.968C390.491 357.496 398.159 342.451 396.426 328.037C395.135 317.304 390 308.001 384.424 298.961C381.702 294.55 378.896 290.191 377.35 285.2C375.886 280.469 375.685 275.738 375.531 270.822Z"/>
	<path fill="#050506" d="M437.013 409.088C440.772 409.086 444.573 409.548 447.843 411.532C461.842 420.024 482.704 464.366 482.727 480.816C482.744 492.336 475.19 502.697 476.127 513.98C476.502 518.492 478.192 522.863 479.302 527.232C480.64 532.497 481.565 539.113 478.506 543.955C474.985 549.528 467.952 551.276 461.914 552.49C454.53 552.647 447.586 551.295 440.802 548.354C430.386 543.838 420.064 535.552 415.832 524.728C408.286 505.429 426.687 482.352 428.472 462.795C429.653 449.857 423.834 426.301 428.695 416.108C430.509 412.303 433.132 410.474 437.013 409.088Z"/>
	<path fill="#3C3C3C" d="M436.731 412.525C440.88 412.437 443.93 413.174 447.385 415.552C455.054 420.83 459.638 430.628 463.89 438.643C472.57 455.006 482.883 474.04 477.146 493.072C475.245 499.376 472.307 505.813 472.323 512.503C472.337 518.681 475.243 524.518 476.334 530.542C477.09 534.716 477.084 539.753 474.466 543.323C471.841 546.902 467.166 547.973 463.019 548.555C459.887 548.604 456.749 548.611 453.639 548.183C442.084 546.592 430.077 540.034 423.047 530.622C419.304 525.61 417.316 519.8 417.655 513.512C418.545 497.033 429.225 481.87 431.779 465.463C434.018 451.082 428.317 436.099 430.727 421.933C431.501 417.385 432.977 415.111 436.731 412.525Z"/>
	<path fill="#050506" d="M655.847 314.725C676.103 313.691 695.597 318.155 715.636 319.977C724.349 320.769 737.07 319.27 744.84 322.537C746.477 323.226 748.504 324.49 749.012 326.324C751.172 334.117 727.896 345.984 724.243 353.002C719.749 361.638 729.672 378.677 733.994 385.898C735.838 388.98 738.734 392.463 739.676 395.93L739.124 396.62C730.734 387.428 722.679 374.441 720.746 361.95C717.841 343.174 735.941 342.264 743.246 331.528C744.206 330.117 744.255 329.194 743.909 327.568C742.47 325.938 740.888 325.374 738.767 324.987C732.295 323.807 725.34 324.438 718.742 323.72C704.415 322.161 690.214 319.596 675.865 318.213C669.969 317.644 659.422 318.448 654.413 316.029L654.334 315.33L655.847 314.725Z"/>
	<path fill="#050506" d="M727.812 514.487L728.14 514.752C728.027 516.129 727.222 517.194 726.51 518.334C711.248 542.769 688.299 563.897 659.749 570.617L659.378 570.195C662.07 567.684 669.399 565.623 672.965 563.767C679.352 560.454 685.412 556.547 691.065 552.098C699.074 545.768 706.302 538.428 712.982 530.72C717.793 525.171 722.258 519.332 727.812 514.487Z"/>
	<path fill="#050506" d="M509.134 491.253L510.25 492.209C512.219 496.722 512.149 502.275 512.286 507.114C512.97 527.169 510.336 547.198 504.492 566.395C504.101 567.314 504.41 566.92 503.507 567.526C501.26 563.689 506.181 544.189 507.041 538.678C507.67 534.51 508.145 530.319 508.466 526.116C509.34 514.54 507.895 502.536 509.134 491.253Z"/>
	<path fill="#050506" d="M341.839 574.277C346.314 575.714 351.52 583.122 355.363 586.479C361.623 591.949 368.557 597.003 376.352 600.043C381.339 601.987 386.814 603.129 392.181 602.745C396.345 602.447 405.262 598.558 408.165 599.871L408.146 601.036C406.706 602.006 405.27 602.901 403.666 603.58C394.407 607.499 383.208 605.966 374.165 602.201C362.665 597.412 346.656 586.191 341.839 574.277Z"/>
	<path fill="#050506" d="M775.361 485.814C779.805 488.86 783.672 501.471 786.774 506.581C790.268 512.338 794.431 517.586 798.743 522.74C802.4 527.11 806.777 531.569 809.288 536.723C807.81 536.455 806.597 535.564 805.507 534.569C796.272 526.146 776.187 497.963 775.361 485.814Z"/>
	<path fill="#050506" d="M898.373 617.79C900.591 618.794 901.958 620.569 903.079 622.695C907.4 630.885 905.147 641.579 902.529 649.901C902.17 650.18 901.688 650.294 901.264 650.451C899.695 648.935 900.844 645.289 901.163 643.317C902.399 635.684 902.396 632.215 900.08 624.884C899.327 622.503 898.567 620.299 898.373 617.79Z"/>
	<path fill="#3C3C3C" d="M254.466 249.805C277.323 254.177 299.94 259.705 322.859 263.777C339.342 266.705 355.73 268.541 372.379 270.15C372.37 275.381 372.401 280.404 373.824 285.476C375.358 290.942 378.329 295.498 381.278 300.284C386.734 309.137 391.574 318.301 392.662 328.825C394.227 343.96 386.361 358.34 382.056 372.44C379.148 381.967 377.121 391.998 376.626 401.961C376.112 412.3 376.519 422.894 378.502 433.072C380.863 445.19 387.608 457.612 385.233 470.233C382.765 483.349 368.205 491.75 358.196 498.772C352.894 487.877 347.696 476.685 343.526 465.302C339.934 455.496 337.792 445.065 332.857 435.803C333.938 457.984 346.355 480.432 355.921 500.071L351.643 503.429C342.081 486.92 334.422 469 328.236 450.972C325.645 443.557 323.381 436.031 321.45 428.417C320.277 423.894 319.47 419.263 317.963 414.838C317.318 412.943 316.537 410.089 314.954 408.851C314.819 409.151 314.637 409.434 314.549 409.751C313.534 413.427 317.117 423.348 318.215 427.196C325.871 454.035 334.432 481.455 349.797 505.079C347.85 506.486 345.907 507.61 343.472 507.852C336.68 508.525 330.744 503.456 325.856 499.415C320.423 495.044 315.805 488.951 311.429 483.536C291.183 458.274 274.284 430.505 261.149 400.916C258.322 394.706 252.005 374.521 248.121 370.729L247.67 371.169C247.809 377.495 250.821 384.015 253.087 389.828C265.099 420.642 282.329 448.819 301.629 475.554C298.679 474.241 295.598 473.147 292.587 471.979C282.693 458.334 272.968 443.465 264.976 428.613C261.566 422.277 259.332 414.631 255.492 408.721L254.821 408.748C254.63 409.187 254.577 409.234 254.524 409.786C253.426 421.198 282.181 461.877 289.64 472.583C285.514 473.412 281.851 474.804 278.049 476.582C269.971 464.395 262.481 451.87 254.68 439.51C251.522 434.508 245.831 427.524 243.92 422.106C242.567 418.268 242.465 413.734 242.056 409.71C240.622 395.603 240.698 381.56 239.532 367.466C237.388 341.55 228.605 317.518 218.435 293.808C220.747 292.998 223.109 292.213 225.331 291.177C241.65 283.572 248.673 265.652 254.466 249.805Z"/>
	<path fill="#3C3C3C" d="M533.423 288.779C547.528 290.327 561.528 292.567 575.601 294.358C586.829 295.787 598.172 296.649 609.321 298.626C615.502 304.761 620.665 311.758 626.703 318.012C634.024 325.594 642.782 331.654 650.47 338.847C659.209 347.022 666.777 356.296 675.924 364.087C680.475 367.995 685.254 371.628 690.236 374.969C697.856 379.973 706.086 384.494 712.766 390.76C717.042 394.772 720.919 400.292 723.217 405.688C724.964 409.811 725.848 414.248 725.814 418.725C725.835 429.219 721.726 439.209 721.383 449.64C721.107 458.046 724.532 468.191 721.243 476.175C717.65 484.897 707.333 484.239 702.834 491.695C699.471 497.269 702.009 504.12 699.473 509.978C696.62 516.566 689.576 519.117 683.357 521.468C667.616 527.371 626.468 539.497 611.401 533.817C609.885 533.245 608.609 532.355 607.961 530.82C605.541 525.083 613.365 516.394 615.193 510.884C622.475 488.937 590.747 477.839 582.864 461.469C575.964 447.14 594.231 439.543 600.995 430.026C602.393 428.059 603.165 425.741 603.981 423.49C597.752 403.125 568.041 392.865 556.428 371.252C549.645 358.63 548.961 344.641 548.445 330.639C548.225 324.648 548.094 318.629 546.352 312.842C543.742 304.171 538.225 296.357 533.423 288.779Z"/>
	<path fill="#FEFEFE" d="M93.9727 298.489C95.7019 290.156 97.5676 281.735 100.514 273.738C102.279 268.947 104.398 264.049 107.746 260.134C112.725 254.312 119.896 251.032 125.465 245.864C137.893 234.33 145.635 219.137 161.776 211.767C165.597 210.023 170.087 208.656 174.18 210.303C178.845 212.18 180.883 216.469 182.852 220.74C182.493 221.542 182.145 222.347 181.808 223.158C180.515 226.283 179.771 229.732 181.244 232.95C183.317 237.481 188.428 239.104 192.762 240.638C186.652 243.427 174.475 247.625 171.175 253.664C167.726 259.977 172.521 272.401 174.257 278.9L173.765 279.147L172.821 278.549C170.156 273.645 167.267 268.47 161.597 266.619C157.212 265.188 151.982 266.271 148.005 268.401C143.871 270.616 140.558 274.071 137.762 277.78C131.252 286.414 127.605 296.654 121.801 305.668C117.04 313.063 108.704 319.321 106.215 327.923C105.007 332.096 105.441 336.314 107.674 340.076C109.734 343.547 113.307 345.411 117.142 346.286C126.568 348.435 136.017 345.128 145.463 345.398C162.287 345.878 179.03 356.596 195.474 345.87C208.681 337.255 211.338 314.447 217.536 300.527C226.246 318.282 232.85 339.734 235.027 359.408C236.23 370.287 236.136 381.297 236.794 392.216C237.31 400.774 238.562 409.31 239.823 417.785C218.816 392.358 204.431 396.929 175.545 388.773C178.613 388.686 185.87 389.178 187.988 387.057C185.9 385.206 183.307 385.683 180.738 385.814C193.263 380.492 205.158 374.429 210.595 361.125C212.312 356.924 213.01 352.754 213.303 348.24C209.157 354.346 207.665 361.966 203.271 367.724C194.983 378.582 163.994 389.245 150.204 391.93C146.823 392.589 143.448 392.95 140.017 393.212C128.569 394.417 116.507 393.057 104.986 392.95L104.64 392.228C106.47 390.94 108.489 389.855 110.413 388.707C109.75 388.851 109.096 389.011 108.437 389.169C100.825 390.99 94.1392 395.548 86.4613 397.185C74.6226 399.71 64.5379 395.611 54.7576 389.238C59.9271 391.041 65.0937 392.905 70.4475 394.091C81.7415 396.592 90.5584 394.8 100.491 389.053C104.283 386.858 107.987 384.587 112.226 383.364C121.773 380.609 130.585 383.145 139.616 377.176C141.964 375.624 146.723 371.795 147.249 368.988L146.495 368.557C140.971 369.576 137.852 375.442 132.715 377.325C126.391 379.643 119.035 377.336 112.505 378.614C104.758 380.13 98.7367 385.185 91.6645 388.297C78.8511 393.936 67.4322 387.611 54.7955 385.23C50.4866 384.419 43.7361 384.57 39.9847 382.482C38.0925 381.429 37.0655 378.223 36.6163 376.274C34.8816 368.75 34.946 359.736 39.2382 353.123C46.5072 353.037 63.991 352.673 70.1856 355.034C72.6662 355.979 73.7834 359.38 74.8198 361.611C69.3691 362.865 62.4119 363.925 58.7114 368.542C57.8388 369.63 57.524 370.538 57.6433 371.939C58.5925 373.031 59.1193 373.414 60.5961 373.588C65.0859 374.116 70.8373 371.46 74.1813 368.628C76.5078 366.659 78.4722 363.992 78.6631 360.853C78.7918 358.737 78.0324 356.816 76.6289 355.246C70.6836 348.595 57.6947 349.455 49.4349 348.898C54.8285 345.538 59.8101 341.558 64.278 337.039C72.9908 328.393 79.9193 318.261 87.9219 309C93.6308 302.394 100.117 296.525 105.416 289.558C107.114 287.326 108.498 284.956 109.329 282.258C109.609 281.348 109.925 280.839 109.471 279.988C106.443 281.049 96.8045 295.042 93.9727 298.489Z"/>
	<path fill="#050506" d="M116.514 391.75C115.203 391.426 113.758 391.289 112.841 390.219C115.208 387.969 130.143 388.853 134.267 388.552C144.67 387.793 156.619 385.246 165.619 379.78C170.569 376.774 175.313 373.156 180.745 371.073L181.348 371.276C181.021 373.483 176.561 376.622 174.764 377.945C162.922 386.667 150.539 390.251 136.12 392.172C137.452 392.754 138.599 393.004 140.017 393.212C128.569 394.417 116.507 393.057 104.986 392.95L104.64 392.228C107.676 392.663 113.892 393.372 116.514 391.75Z"/>
	<path fill="#E9E7EE" d="M116.514 391.75C123.046 391.928 129.589 392.592 136.12 392.172C137.452 392.754 138.599 393.004 140.017 393.212C128.569 394.417 116.507 393.057 104.986 392.95L104.64 392.228C107.676 392.663 113.892 393.372 116.514 391.75Z"/>
	<path fill="#050506" d="M218.165 326.19C219.266 326.962 219.778 327.645 220.164 328.92C223.769 340.837 222.121 358.675 216.104 369.688C212.705 375.909 207.988 380.004 201.132 381.96C200.028 381.678 200.068 381.845 199.278 380.892C200.38 378.233 205.917 375.067 208.185 372.789C220.16 360.768 218.232 341.689 218.165 326.19Z"/>
	<path fill="#050506" d="M151.004 241.82C151.65 242.105 151.294 241.873 151.9 242.729C150.478 246.55 144.041 251.195 140.949 254.009L140.297 253.473L140.227 252.208C142.045 247.716 147.097 244.435 151.004 241.82Z"/>
	<path fill="#3C3C3C" d="M203.84 236.154C199.51 255.211 188.053 268.455 188.548 289.513C188.589 291.263 188.57 292.788 189.881 294.024L190.828 293.561C192.55 287.951 191.84 281.006 192.872 275.063C196.22 255.781 209.775 238.21 225.807 227.42C231.89 223.326 244.541 222.593 251.519 224.007C253.265 224.36 255.493 225.02 256.347 226.759C258.217 230.566 255.402 237.875 253.999 241.639C249.338 254.144 240.753 274.715 229.987 282.599C224.832 286.375 218.787 288.709 213.012 291.351C213.43 293.189 213.97 295.013 214.454 296.836C209.721 309.497 206.86 324.443 199.726 336.026C196.578 341.136 192.149 343.927 186.345 345.269C172.287 348.518 159.935 342.343 146.301 341.528C138.004 341.032 129.833 344.067 121.494 343.492C118.745 343.303 115.982 342.649 113.653 341.123C111.135 339.474 109.235 336.928 108.748 333.929C108.291 331.116 109.128 328.414 110.386 325.92C113.807 319.141 119.842 314.039 123.946 307.697C129.26 299.486 132.874 290.265 138.534 282.247C142.118 277.169 148.995 269.539 155.491 268.645C162.712 267.651 165.437 274.889 170.454 278.151C171.472 278.813 171.694 278.76 172.821 278.549L173.765 279.147L174.257 278.9L175.296 280.042C176.305 280.013 176.171 279.883 176.847 279.217C178.163 272.992 174.961 261.385 173.823 254.771C183.86 248.364 194.681 243.965 203.84 236.154Z"/>
	<path fill="#050506" d="M145.271 293.311C144.259 295.456 143.336 298.302 140.946 299.165L140.326 298.445C140.302 295.794 141.271 293.7 142.701 291.493C146.308 285.926 151.447 283.348 157.76 282.008C160.883 281.345 164.788 280.679 167.586 282.674C168.872 283.59 169.66 284.988 169.731 286.581C169.809 288.336 169.039 289.719 167.719 290.814C166.64 291.709 164.803 292.212 163.424 292.042C163.166 292.01 162.91 291.963 162.652 291.924C161.492 292.997 160.351 294.129 159.128 295.127C157.462 296.225 154.191 298.039 152.121 298.067C150.083 298.094 148.536 296.921 147.024 295.702C146.698 294.842 146.509 294.4 145.811 293.759C145.639 293.601 145.451 293.46 145.271 293.311Z"/>
	<path fill="#FEFEFE" d="M145.271 293.311C146.909 290.508 149.373 287.061 152.746 286.243C152.992 286.184 153.241 286.14 153.489 286.088L153.746 286.621C152.506 288.321 150.304 290.708 150.602 292.933C150.704 293.692 151.176 293.887 151.705 294.372C153.886 294.843 155.786 294.941 157.98 294.436L159.128 295.127C157.462 296.225 154.191 298.039 152.121 298.067C150.083 298.094 148.536 296.921 147.024 295.702C146.698 294.842 146.509 294.4 145.811 293.759C145.639 293.601 145.451 293.46 145.271 293.311Z"/>
	<path fill="#E9E7EE" d="M157.98 294.436C160.982 292.56 162.632 289.217 165.126 286.699L165.512 286.978C164.804 288.879 163.864 290.304 162.652 291.924C161.492 292.997 160.351 294.129 159.128 295.127L157.98 294.436Z"/>
	<path fill="#050506" d="M236.696 233.866C237.537 234.08 237.164 233.853 237.75 234.644C236.269 236.872 232.454 238.954 230.232 240.606C218.266 249.503 214.851 258.741 212.003 272.92C211.462 272.697 210.939 272.346 210.43 272.055C209.068 268.832 210.31 264.548 211.31 261.317C215.194 248.77 225.368 239.768 236.696 233.866Z"/>
	<path fill="#3C3C3C" d="M842.609 322.03C844.365 321.979 846.106 321.967 847.855 322.164C859.537 323.478 869.341 332.551 876.261 341.427C903.286 376.091 892.9 436.91 888.062 477.525C886.379 491.652 885.462 505.858 883.686 519.975C876.939 508.644 868.722 497.522 858.225 489.41C838.626 474.265 829.942 478.334 820.835 451.879C818.215 442.341 815.138 432.485 810.593 423.679C804.38 411.643 792.876 400.927 791.346 386.875C791.005 383.741 791.328 380.415 793.461 377.936C795.49 375.577 798.825 374.345 801.865 374.114C817.116 372.953 841.104 388.894 852.019 398.48C857.259 403.082 862.174 408.414 866.004 414.259C868.531 418.115 867.884 424.642 871.34 427.735C871.709 427.472 871.868 427.394 872.166 426.979C875.805 421.929 876.384 411.351 877.005 405.269C879.687 379.011 873.205 358.732 854.808 339.688C850 334.711 843.978 329.787 842.711 322.645C842.674 322.44 842.643 322.235 842.609 322.03Z"/>
	<path fill="#FEFEFE" d="M757.345 516.635C761.479 516.335 766.19 516.667 770.08 518.177C786.803 524.669 816.85 567.212 824.247 583.812L819.221 587.249C820.02 591.452 820.527 595.437 820.547 599.722C819.24 596.578 818.039 593.403 816.144 590.555C811.536 592.31 802.708 594.591 799.246 597.636C794.977 601.391 800.818 616.608 795.83 622.387C795.037 623.306 793.95 623.765 792.737 623.697C791.288 623.616 790.053 623.003 789.114 621.898C784.587 616.569 786.191 606.969 786.548 600.429C779.938 601.065 773.408 601.507 766.764 601.487C764.129 608.256 763.472 615.397 759.891 621.859C759.007 622.827 758.05 623.822 757.021 624.635C755.971 625.466 754.982 625.793 753.644 625.683C752.88 625.283 752.513 625.019 752.05 624.26C748.826 618.979 752.467 606.009 753.543 600.226C748.495 597.222 742.445 596.386 736.757 595.288C733.356 601.125 732.065 612.647 727.559 616.899C726.464 617.933 725.096 618.558 723.561 618.302C722.228 618.079 721.275 617.518 720.539 616.392C716.763 610.613 723.302 597.834 724.859 591.605L725.015 590.957C713.209 583.517 704.09 578.825 693.145 569.438C701.933 563.126 710.207 555.623 717.555 547.686C729.86 534.396 738.049 519.85 757.345 516.635Z"/>
	<path fill="#FEFEFE" d="M811.371 597.003C813.136 599.632 810.847 617.14 811.068 621.496C811.57 631.361 813.546 640.782 815.926 650.325C811.388 659.593 804.763 667.866 798.841 676.288C786.129 694.369 770.577 714.249 762.636 734.939C760.906 739.446 760.226 744.376 758.743 749C755.079 748.587 752.193 748.182 749.05 750.576C743.699 754.651 743.41 764.179 742.616 770.385C736.253 768.766 729.433 766.122 723.891 762.566C720.539 760.414 717.276 757.819 713.641 756.18C713.393 756.069 713.141 755.968 712.892 755.86C710.052 754.626 706.844 754.459 703.792 754.102C708.99 748.22 716.881 744.823 722.331 738.823C742.785 716.305 759.626 679.258 764.613 649.086C767.004 634.618 765.731 620.368 769.803 606.08L781.02 605.581C780.898 612.673 781.08 619.246 785.883 625.007C787.614 627.083 790.108 629.158 792.961 629.15C794.867 629.144 796.565 628.101 797.852 626.77C804.072 620.332 802.729 608.989 802.48 600.798L811.371 597.003Z"/>
	<path fill="#050506" d="M810.227 643.752C810.309 643.823 810.405 643.88 810.472 643.965C811.27 644.973 811.182 645.651 811.13 646.892C810.777 655.404 803.109 664.595 797.059 670.029L796.799 669.501C797.141 667.647 798.069 666.114 799.224 664.656C805.936 656.175 806.687 653.709 810.227 643.752Z"/>
	<path fill="#FEFEFE" d="M352.586 604.347C368.675 614.514 379.98 617.463 398.909 617.632C393.89 635.445 390.643 653.608 386.116 671.521C383.987 679.946 381.102 688.179 378.828 696.567C375.766 708.143 373.445 719.902 371.879 731.774C369.707 747.934 369.908 764.309 368.86 780.561C366.662 778.496 364.661 776.115 362.618 773.889C360.118 778.843 358.219 784.047 356.531 789.325L354.686 797.736C344.396 789.001 332.626 785.984 319.476 784.157C321.888 783.017 324.346 781.897 326.639 780.528C346.165 768.87 352.956 735.407 355.163 714.097C355.789 708.054 355.165 700.548 356.64 694.762L358.526 694.148C359.485 690.557 352.157 681.796 351.632 676.988C350.814 669.477 351.598 661.475 351.649 653.903C351.76 637.351 351.871 620.889 352.586 604.347Z"/>
	<path fill="#050506" d="M386.282 646.216L387.055 646.77C387.654 648.718 387.33 650.753 387.081 652.744C385.587 664.678 379.914 689.592 370.416 696.97L370.009 696.86L369.646 696.034C371.059 691.106 375.392 685.731 377.28 679.946C380.909 668.826 381.701 657.09 386.282 646.216Z"/>
	<path fill="#3C3C3C" d="M465.547 276.984C476.253 278.616 486.827 280.236 497.327 282.943C531.026 330.334 497.271 334.287 494.529 379.571C493.615 394.673 494.761 410.338 500.053 424.611C502.606 431.497 505.993 438.118 508.025 445.183L508.271 446.054L507.811 448.739C506.945 449.804 506.984 449.773 505.625 449.974C496.857 447.271 489.003 434.293 484.266 426.912C468.711 402.676 463.687 376.072 471.567 348.138C474.255 338.611 478.548 329.365 480.586 319.691C484.102 302.993 474.22 290.15 465.547 276.984Z"/>
	<path fill="#3C3C3C" d="M96.8733 228.712C108.461 228.133 119.947 231.127 131.099 233.961C123.974 242.849 113.957 249.111 105.667 256.837C103.12 259.799 101.234 263.029 99.2525 266.381C91.4489 259.238 83.1171 249.915 79.5666 239.75C78.9102 237.871 78.3562 235.408 79.5554 233.623C82.4157 229.366 92.2291 229.192 96.8733 228.712Z"/>
	<path fill="#3C3C3C" d="M871.988 772.548C879.472 772.678 887.378 774.21 894.327 777.021C896.979 778.094 898.974 779.19 900.15 781.875C900.177 782.91 900.16 783.554 899.703 784.515C897.137 789.918 882.555 794.752 877.105 796.501C869.283 798.567 861.406 800.875 853.336 801.706C857.172 790.633 862.314 779.616 871.988 772.548Z"/>
	<path fill="#FEFEFE" d="M163.5 184.782C164.981 185.492 166.229 186.448 167.557 187.408C171.47 190.238 175.312 193.52 179.562 195.824C185.119 198.835 191.485 201.032 196.586 204.751C199.049 206.547 201.138 208.79 202.375 211.603C205.553 218.833 202.593 227.714 200.011 234.67C199.75 234.987 199.763 235.03 199.324 235.231C196.441 236.55 191.773 235.488 189.007 234.272C187.062 233.418 184.665 232.126 184.399 229.777C183.975 226.027 187.473 222.298 186.546 218.566C185.03 212.466 175.095 204.219 171.15 198.918C167.872 194.514 165.548 189.856 163.5 184.782Z"/>
	<path fill="#3C3C3C" d="M711.329 758.916C716.073 760.648 720.218 763.613 724.551 766.16C729.606 769.131 734.733 771.646 740.255 773.625C731.237 778.192 722.227 781.034 712.381 783.173C703.695 784.695 694.966 785.956 686.204 786.956C693.276 776.346 700.517 766.029 711.329 758.916Z"/>
	<path fill="#3C3C3C" d="M472.807 802.042C480.09 804.365 493.948 804.296 499.07 809.972C499.258 810.768 499.55 811.273 499.242 812.073C497.244 817.272 484.427 822.086 479.368 824.512C472.026 827.628 464.595 829.46 456.754 830.736C459.689 818.869 464.458 810.943 472.807 802.042Z"/>
	<path fill="#3C3C3C" d="M328.652 789.552C330.397 789.855 332.1 790.308 333.806 790.782C339.369 792.327 348.197 795.741 350.918 801.168C351.394 802.116 351.302 801.69 350.94 802.795C345.173 807.594 330.917 810.281 323.644 812.303C317.271 813.842 310.935 815.19 304.379 815.663C310.456 803.949 317.623 796.663 328.652 789.552Z"/>
	<path fill="#FEFEFE" d="M116.114 184.284C118.777 186.466 120.459 190.715 122.136 193.681C128.162 204.338 137.329 209.795 147.734 215.61L142.645 220.508L137.486 225.685C134.586 224.196 131.907 222.311 129.526 220.085C119.35 210.551 116.616 197.672 116.114 184.284Z"/>
	<path fill="#3C3C3C" d="M461.708 797.331C464.371 798.215 466.834 799.182 469.35 800.43C463.876 805.424 460.414 810.454 457.223 817.1C456.175 819.285 455.074 822.416 453.469 824.181C452.465 825.284 450.522 825.135 449.127 825.312L443.082 825.804C446.859 814.491 453.454 805.773 461.708 797.331Z"/>
	<path fill="#3C3C3C" d="M860.703 771.053C862.528 771.045 864.498 770.845 866.188 771.611C865.655 773.805 861.459 777.892 860.095 780.052C856.67 785.475 854.085 791.385 850.659 796.835C849.144 797.602 848.539 797.255 846.899 796.974L839.249 795.162C845.057 785.736 851.574 777.457 860.703 771.053Z"/>
	<path fill="#3C3C3C" d="M704.293 757.142L706.294 757.291L706.662 757.864C703.857 760.884 699.663 763.409 696.564 766.495C692.459 770.581 689.346 775.432 685.551 779.774C684.165 781.359 683.611 781.703 681.497 781.875C680.067 781.336 678.876 780.893 677.677 779.903C677.454 777.952 677.995 776.637 679.083 775.068C684.497 767.267 694.905 759.012 704.293 757.142Z"/>
	<path fill="#3C3C3C" d="M314.435 787.55C317.647 787.838 320.87 787.951 324.091 788.095C315.687 793.613 308.76 802.397 301.038 806.523C298.226 807.721 295.236 808.552 292.326 809.482C298.194 800.262 305.006 793.09 314.435 787.55Z"/>
	<path fill="#050506" fill-opacity="0.011764706" d="M107.723 185.863C107.954 186.004 108.716 186.458 108.887 186.627C109.775 187.507 109.445 188.076 109.406 189.206L109.65 189.068L109.825 189.646L109.1 190.28L109.039 191.527L109.668 192.359L109.016 192.761L107.815 191.77C107.517 191.018 107.183 190.406 107.299 189.575C107.471 188.34 107.586 187.106 107.723 185.863Z"/>
</svg>
